<svg width="90" height="60" viewBox="0 0 90 60" fill="none" xmlns="http://www.w3.org/2000/svg">
<path d="M83.6998 25.4361L81.3691 15.6109C82.0063 15.4683 82.4845 14.8725 82.4845 14.1587V12.5746C82.4845 9.13506 79.8293 6.33693 76.5659 6.33693H65.9501V3.06935C65.9501 1.37684 64.6437 0 63.0377 0H8.92478C7.31884 0 6.01243 1.37684 6.01243 3.06935V30.0003C6.01243 30.8204 6.64331 31.4855 7.42167 31.4855C8.19986 31.4855 8.83092 30.8206 8.83092 30.0003V3.06935C8.83092 3.0147 8.87293 2.97042 8.92478 2.97042H63.0376C63.0894 2.97042 63.1314 3.0147 63.1314 3.06935V30.0007C63.1314 30.8208 63.7623 31.4859 64.5407 31.4859C65.3189 31.4859 65.9499 30.821 65.9499 30.0007V28.317H82.5734C82.5748 28.317 82.5759 28.3174 82.5771 28.3174C82.5785 28.3174 82.5797 28.3172 82.581 28.3172C84.6265 28.3187 86.3634 29.7337 86.96 31.6835H82.5781C81.8 31.6835 81.1689 32.3484 81.1689 33.1687V36.337C81.1689 38.903 83.1496 40.9905 85.5844 40.9905H87.1815V47.5251H83.4968C82.2863 43.8416 78.9639 41.1884 75.0624 41.1884C71.161 41.1884 67.8383 43.8416 66.6281 47.5251H65.9496V36.3368C65.9496 35.5167 65.3187 34.8516 64.5403 34.8516C63.7621 34.8516 63.1311 35.5165 63.1311 36.3368V47.5247H33.8937C32.6832 43.8413 29.3608 41.188 25.4593 41.188C21.5579 41.188 18.2352 43.8413 17.025 47.5247H8.92478C8.87293 47.5247 8.83092 47.4805 8.83092 47.4258V44.1584H14.9374C15.7156 44.1584 16.3466 43.4935 16.3466 42.6732C16.3466 41.8529 15.7158 41.188 14.9374 41.188H1.40924C0.631056 41.188 0 41.8529 0 42.6732C0 43.4935 0.63088 44.1584 1.40924 44.1584H6.01261V47.4258C6.01261 49.1183 7.31902 50.4952 8.92496 50.4952H16.537C16.5367 50.5281 16.5345 50.5609 16.5345 50.5941C16.5345 55.7806 20.5383 60 25.4593 60C30.3803 60 34.3841 55.7806 34.3841 50.5941C34.3841 50.5607 34.382 50.5281 34.3816 50.4952H66.1401C66.1398 50.5281 66.1376 50.5609 66.1376 50.5941C66.1376 55.7806 70.1414 60 75.0624 60C79.9834 60 83.9872 55.7806 83.9872 50.5941C83.9872 50.5607 83.9851 50.5281 83.9847 50.4952H88.5908C89.3689 50.4952 90 49.8303 90 49.01V33.1684C90.0002 29.2572 87.262 26.0076 83.6998 25.4361ZM65.9501 9.30717H76.5659C78.2754 9.30717 79.6662 10.7729 79.6662 12.5746V12.6735H65.9501V9.30717ZM65.9501 25.3468V15.6437H78.4719L80.7736 25.3468H65.9501ZM25.4593 57.0301C22.0922 57.0301 19.3528 54.1433 19.3528 50.5945C19.3528 47.0457 22.0922 44.1588 25.4593 44.1588C28.8264 44.1588 31.5658 47.0457 31.5658 50.5945C31.5658 54.1433 28.8264 57.0301 25.4593 57.0301ZM75.0628 57.0301C71.6957 57.0301 68.9563 54.1433 68.9563 50.5945C68.9563 47.0457 71.6957 44.1588 75.0628 44.1588C78.4299 44.1588 81.1693 47.0457 81.1693 50.5945C81.1693 54.1433 78.4299 57.0301 75.0628 57.0301ZM87.1819 38.0201H85.5847C84.7041 38.0201 83.9876 37.265 83.9876 36.3368V34.6536H87.1817V38.0201H87.1819Z" fill="white"/>
</svg>
